<?xml version="1.0" encoding="utf-8"?>
<!-- Generator: Adobe Illustrator 22.1.0, SVG Export Plug-In . SVG Version: 6.00 Build 0)  -->
<svg version="1.1" id="Layer_1" xmlns="http://www.w3.org/2000/svg" xmlns:xlink="http://www.w3.org/1999/xlink" x="0px" y="0px"
	 viewBox="0 0 1000 1000" style="enable-background:new 0 0 1000 1000;" xml:space="preserve">
<style type="text/css">
	.st0{fill:#491D2A;}
	.st1{fill:#632836;}
	.st2{fill:#4ABE9E;}
	.st3{fill:#DCEAB9;}
	.st4{fill:#48BD9D;}
	.st5{opacity:0.4;fill:#1F3742;enable-background:new    ;}
	.st6{fill:#6C2B2F;}
	.st7{fill:#491C2A;}
	.st8{fill:#72A7B4;}
	.st9{fill:#9DDBEC;}
	.st10{fill:#AE4737;}
	.st11{opacity:0.4;fill:#491D2A;enable-background:new    ;}
	.st12{fill:#843235;}
</style>
<path class="st0" d="M1032.6,196.6"/>
<g>
	<path class="st1" d="M337.5,140.5l20.9,97.3c0,0,4.3,11.7-7.5,13.3c-11.8,1.6-137.6,36.8-137.6,36.8l-21.6-64.6l25.3-20.1
		L337.5,140.5z"/>
	<g>
		<path class="st2" d="M39.2,159l68.5-102.1c3.3-4.9,8.4-8.4,14.2-9.6l75-16.1c4.8-1,8.5,4.3,5.8,8.4l-66.1,101.5
			c-3.3,5.1-8.4,8.6-14.3,9.8l-77.3,16.6C40.1,168.6,36.5,163.2,39.2,159z"/>
		<path class="st3" d="M48.2,152.1l61.4-91.5c3-4.4,7.5-7.5,12.8-8.6l67.3-14.5c4.3-0.9,7.6,3.9,5.2,7.5l-60,91.9
			c-2.5,3.9-6.5,6.6-11,7.5l-70.5,15.2C49,160.6,45.7,155.8,48.2,152.1z"/>
		
			<ellipse transform="matrix(0.9777 -0.2099 0.2099 0.9777 -17.9787 27.7903)" class="st4" cx="121.9" cy="98.6" rx="23.4" ry="16.3"/>
		
			<ellipse transform="matrix(0.9777 -0.2099 0.2099 0.9777 -18.1092 27.6052)" class="st4" cx="121" cy="99.1" rx="23.4" ry="16.3"/>
	</g>
	<g>
		<path class="st5" d="M97,144.7l118.3-54c1.3-0.6,2.8-0.7,4.2-0.2l80.3,27.3c4.7,1.6,5.2,8,0.7,10.1l-116,54.8
			c-1.3,0.6-2.9,0.7-4.2,0.2l-82.6-28.1C92.9,153.2,92.5,146.8,97,144.7z"/>
		<path class="st2" d="M104.9,143.7l111.3-52.2c5.4-2.6,11.6-2.9,17.2-0.9l72.6,24.8c4.7,1.6,5.1,8.1,0.6,10.2l-109,52.9
			c-5.4,2.7-11.7,3-17.3,1l-74.8-25.6C100.7,152.3,100.4,145.8,104.9,143.7z"/>
		<path class="st3" d="M118.3,143.4l99.8-46.8c4.8-2.2,10.3-2.6,15.4-0.8l65.1,22.3c4.2,1.5,4.5,7.2,0.6,9.2l-98.8,47.8
			c-4.2,2-9,2.3-13.3,0.8l-68.3-23.4C114.6,151.1,114.3,145.3,118.3,143.4z"/>
		
			<ellipse transform="matrix(0.3239 -0.9461 0.9461 0.3239 13.0349 289.466)" class="st4" cx="209" cy="135.6" rx="16.3" ry="23.4"/>
		
			<ellipse transform="matrix(0.3239 -0.9461 0.9461 0.3239 12.3063 288.4232)" class="st4" cx="208" cy="135.6" rx="16.3" ry="23.4"/>
	</g>
	<path class="st6" d="M365.5,176.9"/>
	<g>
		<path class="st7" d="M338.5,166.8l-124.4,60.6c-0.8,0.4-0.8,1.6,0,2l0,0c0.3,0.2,0.7,0.2,0.9,0l125-59.8c0.6-0.3,0.8-1.1,0.4-1.7
			l-0.6-0.8C339.5,166.7,339,166.6,338.5,166.8z"/>
		<path class="st8" d="M326.2,158.1l-110.9,52.6c-2,1-2.9,3.4-1.9,5.5l4,8.2l118.1-54.7l-4.8-10.6
			C329.8,157.4,327.8,157.2,326.2,158.1z"/>
		<path class="st9" d="M326.7,159.2l-110.9,53.2c-2,1-2.9,3.4-1.9,5.5l4,8.2l117.6-56.4l-4.3-9C330.4,159.1,328.4,158.4,326.7,159.2
			z"/>
	</g>
	<g>
		<path class="st7" d="M341.9,182.7l-124.4,60.6c-0.8,0.4-0.8,1.6,0,2l0,0c0.3,0.2,0.7,0.2,0.9,0l125-59.8c0.6-0.3,0.8-1.1,0.4-1.7
			l-0.6-0.8C342.9,182.6,342.4,182.4,341.9,182.7z"/>
		<path class="st8" d="M329.6,173.9l-110.9,52.6c-2,1-2.9,3.4-1.9,5.5l4,8.2l118.1-54.7l-4.8-10.6
			C333.3,173.3,331.3,173,329.6,173.9z"/>
		<path class="st9" d="M330.1,175l-110.9,53.2c-2,1-2.9,3.4-1.9,5.5l4,8.2l117.6-56.4l-4.3-9C333.8,174.9,331.8,174.2,330.1,175z"/>
	</g>
	<path class="st10" d="M336.7,213.8l18.7,87.3c0,0,2.6,7.1-4.9,9.8c-6.1,2.2-95.9,21.4-127.2,28.1c-6,1.3-11.9-2.4-13.5-8.3
		l-24.7-94.2L336.7,213.8z"/>
	<polygon class="st11" points="217.1,203.1 224.3,235.6 191.6,235.6 191.8,223.2 	"/>
	<path class="st12" d="M323.2,151.2c0,0-111.7,54.8-128.3,72.7c-15.2,16.3,132.5-14.2,132.5-14.2s19.7,2.6,2,10.4
		c-17.7,7.9-158.5,44.1-143.7,8.3c12.4-30.1,33.1-32,135.4-87.2C321.1,141.3,356.7,133.6,323.2,151.2z"/>
	<path class="st6" d="M195.7,227.9L195.7,227.9c-2.2-0.7-2.6-2-0.8-3.9c3.7-4,12.2-9.8,23.1-16.5l2.1-13.4
		c-17.8,9.1-28.6,20.5-34.4,34.5c-1.3,3.2-1.4,5.8-0.4,7.9L195.7,227.9z"/>
</g>
<g>
	<path class="st1" d="M337.5,549.6l20.9,97.3c0,0,4.3,11.7-7.5,13.3C339,661.8,213.3,697,213.3,697l-21.6-64.6l25.3-20.1
		L337.5,549.6z"/>
	<g>
		<path class="st2" d="M39.2,568.1L107.7,466c3.3-4.9,8.4-8.4,14.2-9.6l75-16.1c4.8-1,8.5,4.3,5.8,8.4l-66.1,101.5
			c-3.3,5.1-8.4,8.6-14.3,9.8l-77.3,16.6C40.1,577.7,36.5,572.2,39.2,568.1z"/>
		<path class="st3" d="M48.2,561.2l61.4-91.5c3-4.4,7.5-7.5,12.8-8.6l67.3-14.5c4.3-0.9,7.6,3.9,5.2,7.5l-60,91.9
			c-2.5,3.9-6.5,6.6-11,7.5l-70.5,15.2C49,569.7,45.7,564.9,48.2,561.2z"/>
		
			<ellipse transform="matrix(0.9777 -0.2099 0.2099 0.9777 -103.8493 36.9041)" class="st4" cx="121.9" cy="507.7" rx="23.4" ry="16.3"/>
		
			<ellipse transform="matrix(0.9777 -0.2099 0.2099 0.9777 -103.9799 36.7191)" class="st4" cx="121" cy="508.2" rx="23.4" ry="16.3"/>
	</g>
	<g>
		<path class="st5" d="M97,553.8l118.3-54c1.3-0.6,2.8-0.7,4.2-0.2l80.3,27.3c4.7,1.6,5.2,8,0.7,10.1l-116,54.8
			c-1.3,0.6-2.9,0.7-4.2,0.2l-82.6-28.1C92.9,562.3,92.5,555.8,97,553.8z"/>
		<path class="st2" d="M104.9,552.8l111.3-52.2c5.4-2.6,11.6-2.9,17.2-0.9l72.6,24.8c4.7,1.6,5.1,8.1,0.6,10.2l-109,52.9
			c-5.4,2.7-11.7,3-17.3,1L105.5,563C100.7,561.4,100.4,554.9,104.9,552.8z"/>
		<path class="st3" d="M118.3,552.5l99.8-46.8c4.8-2.2,10.3-2.6,15.4-0.8l65.1,22.3c4.2,1.5,4.5,7.2,0.6,9.2l-98.8,47.8
			c-4.2,2-9,2.3-13.3,0.8l-68.3-23.4C114.6,560.2,114.3,554.4,118.3,552.5z"/>
		
			<ellipse transform="matrix(0.3239 -0.9461 0.9461 0.3239 -374.005 566.055)" class="st4" cx="209" cy="544.7" rx="16.3" ry="23.4"/>
		
			<ellipse transform="matrix(0.3239 -0.9461 0.9461 0.3239 -374.7336 565.0123)" class="st4" cx="208" cy="544.7" rx="16.3" ry="23.4"/>
	</g>
	<path class="st6" d="M365.5,586"/>
	<g>
		<path class="st7" d="M338.5,575.9l-124.4,60.6c-0.8,0.4-0.8,1.6,0,2l0,0c0.3,0.2,0.7,0.2,0.9,0l125-59.8c0.6-0.3,0.8-1.1,0.4-1.7
			l-0.6-0.8C339.5,575.8,339,575.7,338.5,575.9z"/>
		<path class="st8" d="M326.2,567.1l-110.9,52.6c-2,1-2.9,3.4-1.9,5.5l4,8.2l118.1-54.7l-4.8-10.6
			C329.8,566.5,327.8,566.3,326.2,567.1z"/>
		<path class="st9" d="M326.7,568.3l-110.9,53.2c-2,1-2.9,3.4-1.9,5.5l4,8.2l117.6-56.4l-4.3-9C330.4,568.2,328.4,567.5,326.7,568.3
			z"/>
	</g>
	<g>
		<path class="st7" d="M341.9,591.8l-124.4,60.6c-0.8,0.4-0.8,1.6,0,2l0,0c0.3,0.2,0.7,0.2,0.9,0l125-59.8c0.6-0.3,0.8-1.1,0.4-1.7
			l-0.6-0.8C342.9,591.7,342.4,591.5,341.9,591.8z"/>
		<path class="st8" d="M329.6,583l-110.9,52.6c-2,1-2.9,3.4-1.9,5.5l4,8.2l118.1-54.7l-4.8-10.6C333.3,582.3,331.3,582.1,329.6,583z
			"/>
		<path class="st9" d="M330.1,584.1l-110.9,53.2c-2,1-2.9,3.4-1.9,5.5l4,8.2l117.6-56.4l-4.3-9C333.8,584,331.8,583.3,330.1,584.1z"
			/>
	</g>
	<path class="st10" d="M336.7,622.9l18.7,87.3c0,0,2.6,7.1-4.9,9.8c-6.1,2.2-95.9,21.4-127.2,28.1c-6,1.3-11.9-2.4-13.5-8.3
		l-24.7-94.2L336.7,622.9z"/>
	<polygon class="st11" points="217.1,612.2 224.3,644.7 191.6,644.7 191.8,632.3 	"/>
	<path class="st12" d="M323.2,560.3c0,0-111.7,54.8-128.3,72.7c-15.2,16.3,132.5-14.2,132.5-14.2s19.7,2.6,2,10.4
		c-17.7,7.9-158.5,44.1-143.7,8.3c12.4-30.1,33.1-32,135.4-87.2C321.1,550.4,356.7,542.7,323.2,560.3z"/>
	<path class="st6" d="M195.7,637L195.7,637c-2.2-0.7-2.6-2-0.8-3.9c3.7-4,12.2-9.8,23.1-16.5l2.1-13.4
		c-17.8,9.1-28.6,20.5-34.4,34.5c-1.3,3.2-1.4,5.8-0.4,7.9L195.7,637z"/>
</g>
<g>
	<path class="st1" d="M772.9,392.4l20.9,97.3c0,0,4.3,11.7-7.5,13.3c-11.8,1.6-137.6,36.8-137.6,36.8l-21.6-64.6l25.3-20.1
		L772.9,392.4z"/>
	<g>
		<path class="st2" d="M474.6,410.9l68.5-102.1c3.3-4.9,8.4-8.4,14.2-9.6l75-16.1c4.8-1,8.5,4.3,5.8,8.4L572,393
			c-3.3,5.1-8.4,8.6-14.3,9.8l-77.3,16.6C475.5,420.5,471.9,415.1,474.6,410.9z"/>
		<path class="st3" d="M483.6,404l61.4-91.5c3-4.4,7.5-7.5,12.8-8.6l67.3-14.5c4.3-0.9,7.6,3.9,5.2,7.5l-60,91.9
			c-2.5,3.9-6.5,6.6-11,7.5l-70.5,15.2C484.4,412.5,481.1,407.7,483.6,404z"/>
		
			<ellipse transform="matrix(0.9777 -0.2099 0.2099 0.9777 -61.1554 124.7955)" class="st4" cx="557.3" cy="350.5" rx="23.4" ry="16.3"/>
		
			<ellipse transform="matrix(0.9777 -0.2099 0.2099 0.9777 -61.2859 124.6105)" class="st4" cx="556.4" cy="351" rx="23.4" ry="16.3"/>
	</g>
	<g>
		<path class="st5" d="M532.4,396.6l118.3-54c1.3-0.6,2.8-0.7,4.2-0.2l80.3,27.3c4.7,1.6,5.2,8,0.7,10.1l-116,54.8
			c-1.3,0.6-2.9,0.7-4.2,0.2l-82.6-28.1C528.3,405.1,527.9,398.7,532.4,396.6z"/>
		<path class="st2" d="M540.3,395.6l111.3-52.2c5.4-2.6,11.6-2.9,17.2-0.9l72.6,24.8c4.7,1.6,5.1,8.1,0.6,10.2l-109,52.9
			c-5.4,2.7-11.7,3-17.3,1l-74.8-25.6C536.2,404.2,535.8,397.7,540.3,395.6z"/>
		<path class="st3" d="M553.7,395.3l99.8-46.8c4.8-2.2,10.3-2.6,15.4-0.8L734,370c4.2,1.5,4.5,7.2,0.6,9.2L635.8,427
			c-4.2,2-9,2.3-13.3,0.8l-68.3-23.4C550,403,549.7,397.2,553.7,395.3z"/>
		
			<ellipse transform="matrix(0.3239 -0.9461 0.9461 0.3239 69.0842 871.713)" class="st4" cx="644.5" cy="387.5" rx="16.3" ry="23.4"/>
		
			<ellipse transform="matrix(0.3239 -0.9461 0.9461 0.3239 68.3556 870.6702)" class="st4" cx="643.4" cy="387.5" rx="16.3" ry="23.4"/>
	</g>
	<path class="st6" d="M800.9,428.8"/>
	<g>
		<path class="st7" d="M773.9,418.8l-124.4,60.6c-0.8,0.4-0.8,1.6,0,2l0,0c0.3,0.2,0.7,0.2,0.9,0l125-59.8c0.6-0.3,0.8-1.1,0.4-1.7
			l-0.6-0.8C774.9,418.7,774.4,418.5,773.9,418.8z"/>
		<path class="st8" d="M761.6,410l-110.9,52.6c-2,1-2.9,3.4-1.9,5.5l4,8.2l118.1-54.7l-4.8-10.6C765.2,409.3,763.2,409.1,761.6,410z
			"/>
		<path class="st9" d="M762.1,411.1l-110.9,53.2c-2,1-2.9,3.4-1.9,5.5l4,8.2l117.6-56.4l-4.3-9C765.8,411,763.8,410.3,762.1,411.1z"
			/>
	</g>
	<g>
		<path class="st7" d="M777.3,434.6l-124.4,60.6c-0.8,0.4-0.8,1.6,0,2l0,0c0.3,0.2,0.7,0.2,0.9,0l125-59.8c0.6-0.3,0.8-1.1,0.4-1.7
			l-0.6-0.8C778.3,434.5,777.8,434.3,777.3,434.6z"/>
		<path class="st8" d="M765,425.8l-110.9,52.6c-2,1-2.9,3.4-1.9,5.5l4,8.2l118.1-54.7l-4.8-10.6C768.7,425.2,766.7,425,765,425.8z"
			/>
		<path class="st9" d="M765.5,426.9l-110.9,53.2c-2,1-2.9,3.4-1.9,5.5l4,8.2l117.6-56.4l-4.3-9C769.2,426.8,767.2,426.1,765.5,426.9
			z"/>
	</g>
	<path class="st10" d="M772.1,465.7l18.7,87.3c0,0,2.6,7.1-4.9,9.8c-6.1,2.2-95.9,21.4-127.2,28.1c-6,1.3-11.9-2.4-13.5-8.3
		l-24.7-94.2L772.1,465.7z"/>
	<polygon class="st11" points="652.5,455 659.7,487.5 627,487.5 627.2,475.1 	"/>
	<path class="st12" d="M758.6,403.1c0,0-111.7,54.8-128.3,72.7c-15.2,16.3,132.5-14.2,132.5-14.2s19.7,2.6,2,10.4
		c-17.7,7.9-158.5,44.1-143.7,8.3c12.4-30.1,33.1-32,135.4-87.2C756.5,393.2,792.1,385.5,758.6,403.1z"/>
	<path class="st6" d="M631.1,479.8L631.1,479.8c-2.2-0.7-2.6-2-0.8-3.9c3.7-4,12.2-9.8,23.1-16.5l2.1-13.4
		c-17.8,9.1-28.6,20.5-34.4,34.5c-1.3,3.2-1.4,5.8-0.4,7.9L631.1,479.8z"/>
</g>
<g>
	<path class="st1" d="M772.9,801.5l20.9,97.3c0,0,4.3,11.7-7.5,13.3c-11.8,1.6-137.6,36.8-137.6,36.8l-21.6-64.6l25.3-20.1
		L772.9,801.5z"/>
	<g>
		<path class="st2" d="M474.6,820l68.5-102.1c3.3-4.9,8.4-8.4,14.2-9.6l75-16.1c4.8-1,8.5,4.3,5.8,8.4L572,802.1
			c-3.3,5.1-8.4,8.6-14.3,9.8l-77.3,16.6C475.5,829.6,471.9,824.2,474.6,820z"/>
		<path class="st3" d="M483.6,813.1l61.4-91.5c3-4.4,7.5-7.5,12.8-8.6l67.3-14.5c4.3-0.9,7.6,3.9,5.2,7.5l-60,91.9
			c-2.5,3.9-6.5,6.6-11,7.5l-70.5,15.2C484.4,821.6,481.1,816.8,483.6,813.1z"/>
		
			<ellipse transform="matrix(0.9777 -0.2099 0.2099 0.9777 -147.026 133.9093)" class="st4" cx="557.3" cy="759.6" rx="23.4" ry="16.3"/>
		
			<ellipse transform="matrix(0.9777 -0.2099 0.2099 0.9777 -147.1565 133.7243)" class="st4" cx="556.4" cy="760.1" rx="23.4" ry="16.3"/>
	</g>
	<g>
		<path class="st5" d="M532.4,805.7l118.3-54c1.3-0.6,2.8-0.7,4.2-0.2l80.3,27.3c4.7,1.6,5.2,8,0.7,10.1l-116,54.8
			c-1.3,0.6-2.9,0.7-4.2,0.2l-82.6-28.1C528.3,814.2,527.9,807.8,532.4,805.7z"/>
		<path class="st2" d="M540.3,804.7l111.3-52.2c5.4-2.6,11.6-2.9,17.2-0.9l72.6,24.8c4.7,1.6,5.1,8.1,0.6,10.2l-109,52.9
			c-5.4,2.7-11.7,3-17.3,1l-74.8-25.6C536.2,813.3,535.8,806.8,540.3,804.7z"/>
		<path class="st3" d="M553.7,804.4l99.8-46.8c4.8-2.2,10.3-2.6,15.4-0.8l65.1,22.3c4.2,1.5,4.5,7.2,0.6,9.2l-98.8,47.8
			c-4.2,2-9,2.3-13.3,0.8l-68.3-23.4C550,812.1,549.7,806.3,553.7,804.4z"/>
		
			<ellipse transform="matrix(0.3239 -0.9461 0.9461 0.3239 -317.9557 1148.302)" class="st4" cx="644.5" cy="796.6" rx="16.3" ry="23.4"/>
		
			<ellipse transform="matrix(0.3239 -0.9461 0.9461 0.3239 -318.6843 1147.2593)" class="st4" cx="643.4" cy="796.6" rx="16.3" ry="23.4"/>
	</g>
	<path class="st6" d="M800.9,837.9"/>
	<g>
		<path class="st7" d="M773.9,827.8l-124.4,60.6c-0.8,0.4-0.8,1.6,0,2l0,0c0.3,0.2,0.7,0.2,0.9,0l125-59.8c0.6-0.3,0.8-1.1,0.4-1.7
			l-0.6-0.8C774.9,827.7,774.4,827.6,773.9,827.8z"/>
		<path class="st8" d="M761.6,819.1l-110.9,52.6c-2,1-2.9,3.4-1.9,5.5l4,8.2l118.1-54.7l-4.8-10.6
			C765.2,818.4,763.2,818.2,761.6,819.1z"/>
		<path class="st9" d="M762.1,820.2l-110.9,53.2c-2,1-2.9,3.4-1.9,5.5l4,8.2l117.6-56.4l-4.3-9C765.8,820.1,763.8,819.4,762.1,820.2
			z"/>
	</g>
	<g>
		<path class="st7" d="M777.3,843.7l-124.4,60.6c-0.8,0.4-0.8,1.6,0,2l0,0c0.3,0.2,0.7,0.2,0.9,0l125-59.8c0.6-0.3,0.8-1.1,0.4-1.7
			l-0.6-0.8C778.3,843.6,777.8,843.4,777.3,843.7z"/>
		<path class="st8" d="M765,834.9l-110.9,52.6c-2,1-2.9,3.4-1.9,5.5l4,8.2l118.1-54.7l-4.8-10.6C768.7,834.3,766.7,834,765,834.9z"
			/>
		<path class="st9" d="M765.5,836l-110.9,53.2c-2,1-2.9,3.4-1.9,5.5l4,8.2l117.6-56.4l-4.3-9C769.2,835.9,767.2,835.2,765.5,836z"/>
	</g>
	<path class="st10" d="M772.1,874.8l18.7,87.3c0,0,2.6,7.1-4.9,9.8c-6.1,2.2-95.9,21.4-127.2,28.1c-6,1.3-11.9-2.4-13.5-8.3
		l-24.7-94.2L772.1,874.8z"/>
	<polygon class="st11" points="652.5,864.1 659.7,896.6 627,896.6 627.2,884.2 	"/>
	<path class="st12" d="M758.6,812.2c0,0-111.7,54.8-128.3,72.7c-15.2,16.3,132.5-14.2,132.5-14.2s19.7,2.6,2,10.4
		c-17.7,7.9-158.5,44.1-143.7,8.3c12.4-30.1,33.1-32,135.4-87.2C756.5,802.3,792.1,794.6,758.6,812.2z"/>
	<path class="st6" d="M631.1,888.9L631.1,888.9c-2.2-0.7-2.6-2-0.8-3.9c3.7-4,12.2-9.8,23.1-16.5l2.1-13.4
		c-17.8,9.1-28.6,20.5-34.4,34.5c-1.3,3.2-1.4,5.8-0.4,7.9L631.1,888.9z"/>
</g>
</svg>
