<?xml version="1.0" encoding="utf-8"?>
<!-- Generator: Adobe Illustrator 22.1.0, SVG Export Plug-In . SVG Version: 6.00 Build 0)  -->
<svg version="1.1" id="Layer_1" xmlns="http://www.w3.org/2000/svg" xmlns:xlink="http://www.w3.org/1999/xlink" x="0px" y="0px"
	 viewBox="0 0 1000 1000" style="enable-background:new 0 0 1000 1000;" xml:space="preserve">
<style type="text/css">
	.st0{fill:#1F3742;}
	.st1{fill:#632836;}
	.st2{fill:#4ABE9E;}
	.st3{fill:#DCEAB9;}
	.st4{fill:#48BD9D;}
	.st5{opacity:0.4;fill:#1F3742;}
	.st6{fill:#491D2A;}
	.st7{fill:#6C2B2F;}
	.st8{fill:#491C2A;}
	.st9{fill:#72A7B4;}
	.st10{fill:#9DDBEC;}
	.st11{fill:#AE4737;}
	.st12{opacity:0.4;fill:#491D2A;}
	.st13{fill:#843235;}
</style>
<rect x="34.4" y="107" class="st0" width="807.7" height="741.3"/>
<path class="st1" d="M670.1,394.6l40.1,186.9c0,0,8.3,22.4-14.4,25.6c-22.7,3.1-264.3,70.6-264.3,70.6l-41.4-124.1l48.5-38.6
	L670.1,394.6z"/>
<g>
	<path class="st2" d="M97.2,430.2l131.5-196.1c6.4-9.5,16.2-16.1,27.3-18.5l144.1-30.9c9.3-2,16.3,8.3,11.1,16.2l-127,194.9
		c-6.3,9.7-16.2,16.5-27.5,18.9l-148.5,31.9C98.9,448.5,91.9,438.1,97.2,430.2z"/>
	<path class="st3" d="M114.5,416.8l118-175.7c5.7-8.5,14.5-14.4,24.5-16.6l129.3-27.8c8.3-1.8,14.6,7.4,10,14.5L281,387.8
		c-4.8,7.4-12.4,12.6-21.1,14.5l-135.5,29.1C116,433.2,109.7,423.9,114.5,416.8z"/>
	
		<ellipse transform="matrix(0.9777 -0.2099 0.2099 0.9777 -60.2326 60.7559)" class="st4" cx="256.1" cy="314.1" rx="45" ry="31.4"/>
	
		<ellipse transform="matrix(0.9777 -0.2099 0.2099 0.9777 -60.4828 60.4036)" class="st4" cx="254.3" cy="315.1" rx="45" ry="31.4"/>
</g>
<g>
	<path class="st5" d="M208.2,402.6l227.2-103.7c2.5-1.1,5.4-1.3,8-0.4L597.6,351c9.1,3.1,9.9,15.4,1.4,19.4L376.2,475.7
		c-2.5,1.2-5.5,1.4-8.1,0.4l-158.6-54C200.3,419,199.5,406.6,208.2,402.6z"/>
	<path class="st2" d="M223.4,400.8l213.8-100.3c10.3-4.9,22.2-5.5,33-1.8l139.4,47.7c9,3.1,9.7,15.5,1.2,19.6L401.5,467.6
		c-10.4,5.1-22.4,5.8-33.3,2l-143.7-49.2C215.4,417.3,214.7,404.8,223.4,400.8z"/>
	<path class="st3" d="M249.1,400.2l191.7-89.8c9.3-4.3,19.8-4.9,29.5-1.6l125.1,42.8c8,2.8,8.7,13.9,1.1,17.6l-189.7,91.9
		c-8,3.9-17.2,4.4-25.5,1.6l-131.1-44.9C242,415,241.4,403.8,249.1,400.2z"/>
	
		<ellipse transform="matrix(0.3239 -0.9461 0.9461 0.3239 -78.1613 661.0152)" class="st4" cx="423.4" cy="385.2" rx="31.4" ry="45"/>
	
		<ellipse transform="matrix(0.3239 -0.9461 0.9461 0.3239 -79.4875 659.0385)" class="st4" cx="421.3" cy="385.1" rx="31.4" ry="45"/>
</g>
<path class="st6" d="M1032.6,196.6"/>
<path class="st7" d="M723.9,464.5"/>
<g>
	<path class="st8" d="M672.1,445.2L433.1,561.6c-1.6,0.8-1.6,3,0,3.8l0,0c0.6,0.3,1.3,0.3,1.8,0l240.1-114.9
		c1.2-0.6,1.6-2.1,0.8-3.2l-1.2-1.5C674,445,673,444.7,672.1,445.2z"/>
	<path class="st9" d="M648.4,428.3l-213,101.1c-3.9,1.9-5.6,6.6-3.7,10.5l7.6,15.8l226.9-105l-9.2-20.4
		C655.4,427.1,651.6,426.7,648.4,428.3z"/>
	<path class="st10" d="M649.4,430.5l-213,102.1c-3.9,1.9-5.6,6.6-3.7,10.5l7.6,15.8l225.9-108.3l-8.2-17.2
		C656.5,430.3,652.6,429,649.4,430.5z"/>
</g>
<g>
	<path class="st8" d="M678.6,475.6L439.7,592c-1.6,0.8-1.6,3,0,3.8l0,0c0.6,0.3,1.3,0.3,1.8,0l240.1-114.9c1.2-0.6,1.6-2.1,0.8-3.2
		l-1.2-1.5C680.6,475.4,679.5,475.1,678.6,475.6z"/>
	<path class="st9" d="M655,458.7L442,559.7c-3.9,1.9-5.6,6.6-3.7,10.5l7.6,15.8l226.9-105l-9.2-20.4
		C662,457.5,658.2,457.1,655,458.7z"/>
	<path class="st10" d="M656,460.9L443,563c-3.9,1.9-5.6,6.6-3.7,10.5l7.6,15.8l225.9-108.3l-8.2-17.2
		C663,460.7,659.2,459.4,656,460.9z"/>
</g>
<path class="st11" d="M668.6,535.4l36,167.7c0,0,4.9,13.7-9.4,18.8c-11.8,4.2-184.2,41.1-244.4,54c-11.5,2.5-22.9-4.6-25.9-15.9
	l-47.5-180.9L668.6,535.4z"/>
<polygon class="st12" points="438.8,514.9 452.7,577.2 389.9,577.2 390.2,553.5 "/>
<path class="st13" d="M642.6,415.2c0,0-214.5,105.3-246.4,139.7c-29.1,31.3,254.5-27.3,254.5-27.3s37.9,5,3.9,20
	c-34,15.1-304.4,84.8-276,16c23.9-57.9,63.5-61.5,260.1-167.5C638.7,396.1,707.1,381.4,642.6,415.2z"/>
<path class="st7" d="M397.8,562.4L397.8,562.4c-4.2-1.4-5-3.9-1.6-7.5c7.2-7.7,23.4-18.9,44.4-31.7l4-25.7
	c-34.1,17.5-55,39.4-66,66.2c-2.5,6.1-2.7,11.2-0.8,15.2L397.8,562.4z"/>
<rect x="-65.5" y="35" class="st0" width="807.7" height="741.3"/>
</svg>
