<?xml version="1.0" encoding="utf-8"?>
<!-- Generator: Adobe Illustrator 22.1.0, SVG Export Plug-In . SVG Version: 6.00 Build 0)  -->
<svg version="1.1" id="Layer_1" xmlns="http://www.w3.org/2000/svg" xmlns:xlink="http://www.w3.org/1999/xlink" x="0px" y="0px"
	 viewBox="0 0 1000 1000" style="enable-background:new 0 0 1000 1000;" xml:space="preserve">
<style type="text/css">
	.st0{fill:#9DDBEC;}
	.st1{fill:#1C4EA2;}
</style>
<rect class="st0" width="1000" height="1000"/>
<polygon class="st1" points="250,500 250,750 0,750 "/>
<polygon class="st1" points="250,750 250,500 500,500 "/>
<polygon class="st1" points="750,500 750,750 500,750 "/>
<polygon class="st1" points="750,750 750,500 1000,500 "/>
<polygon class="st1" points="0,250 0,0 250,0 "/>
<polygon class="st1" points="500,0 500,250 250,250 "/>
<polygon class="st1" points="500,250 500,0 750,0 "/>
<polygon class="st1" points="1000,0 1000,250 750,250 "/>
<rect x="0" y="250" class="st1" width="250" height="250"/>
<rect x="500" y="250" class="st1" width="250" height="250"/>
<rect x="250" y="750" class="st1" width="250" height="250"/>
<rect x="750" y="750" class="st1" width="250" height="250"/>
</svg>
