<svg xmlns="http://www.w3.org/2000/svg" viewBox="0 0 807.72 741.33"><defs><style>.cls-1,.cls-14,.cls-6{fill:#1f3742;}.cls-2{fill:#632836;}.cls-3{fill:#4abe9e;}.cls-4{fill:#dceab9;}.cls-5{fill:#48bd9d;}.cls-11,.cls-6{opacity:0.4;}.cls-7{fill:#491c2a;}.cls-8{fill:#72a7b4;}.cls-9{fill:#9ddbec;}.cls-10{fill:#ae4737;}.cls-11{fill:#491d2a;}.cls-12{fill:#843235;}.cls-13{fill:#6c2b2f;}.cls-14{opacity:0.38;}</style></defs><title>Asset 4</title><g id="Layer_2" data-name="Layer 2"><g id="Layer_1-2" data-name="Layer 1"><rect class="cls-1" width="807.72" height="741.33"/><path class="cls-2" d="M621.34,318.49,661.46,505.4s8.31,22.44-14.37,25.58-264.3,70.58-264.3,70.58L341.44,477.42,390,438.83Z"/><path class="cls-3" d="M48.37,354.1,179.92,158a44,44,0,0,1,27.32-18.53l144.11-30.93a10.63,10.63,0,0,1,11.12,16.19l-127,194.87a43.85,43.85,0,0,1-27.52,18.92L59.41,370.42A10.63,10.63,0,0,1,48.37,354.1Z"/><path class="cls-4" d="M65.69,340.71,183.73,165a39.4,39.4,0,0,1,24.46-16.57L337.48,120.7a9.52,9.52,0,0,1,10,14.51L232.18,311.74a33.59,33.59,0,0,1-21.09,14.49L75.58,355.32A9.51,9.51,0,0,1,65.69,340.71Z"/><ellipse class="cls-5" cx="207.31" cy="238.06" rx="44.97" ry="31.36" transform="translate(-45.35 48.82) rotate(-12.12)"/><ellipse class="cls-5" cx="205.53" cy="239.06" rx="44.97" ry="31.36" transform="translate(-45.6 48.46) rotate(-12.12)"/><path class="cls-6" d="M159.38,326.54,386.63,222.82a10.84,10.84,0,0,1,8-.38L548.77,275c9.08,3.09,9.94,15.38,1.36,19.43L327.37,399.64a10.87,10.87,0,0,1-8.14.45L160.61,346C151.47,342.92,150.69,330.51,159.38,326.54Z"/><path class="cls-3" d="M174.58,324.67,388.35,224.39a44,44,0,0,1,33-1.8l139.45,47.73A10.63,10.63,0,0,1,562,289.93L352.68,391.49a43.81,43.81,0,0,1-33.33,2L175.64,344.34A10.63,10.63,0,0,1,174.58,324.67Z"/><path class="cls-4" d="M200.32,324.11,392,234.36a39.46,39.46,0,0,1,29.5-1.59l125.1,42.82a9.52,9.52,0,0,1,1.07,17.57L357.94,385.07a33.63,33.63,0,0,1-25.54,1.55L201.27,341.73A9.52,9.52,0,0,1,200.32,324.11Z"/><ellipse class="cls-5" cx="374.59" cy="309.11" rx="31.36" ry="44.97" transform="translate(-39.17 563.4) rotate(-71.1)"/><ellipse class="cls-5" cx="372.54" cy="309.05" rx="31.36" ry="44.97" transform="translate(-40.5 561.42) rotate(-71.1)"/><path class="cls-7" d="M623.26,369.09,384.32,485.51a2.12,2.12,0,0,0,0,3.8h0a2.11,2.11,0,0,0,1.85,0L626.26,374.4a2.12,2.12,0,0,0,.75-3.21l-1.16-1.5A2.1,2.1,0,0,0,623.26,369.09Z"/><path class="cls-8" d="M599.62,352.18l-213,101.07a7.89,7.89,0,0,0-3.71,10.54l7.57,15.81,226.92-105-9.23-20.4C606.64,351,602.81,350.65,599.62,352.18Z"/><path class="cls-9" d="M381.6,404.54H617.8a6.41,6.41,0,0,1,6.41,6.41v19a0,0,0,0,1,0,0H373.7a0,0,0,0,1,0,0V412.44A7.9,7.9,0,0,1,381.6,404.54Z" transform="translate(-131.32 256.6) rotate(-25.6)"/><path class="cls-7" d="M629.81,399.49,390.88,515.91a2.11,2.11,0,0,0,0,3.79h0a2.11,2.11,0,0,0,1.85,0l240.1-114.92a2.12,2.12,0,0,0,.75-3.21l-1.16-1.49A2.12,2.12,0,0,0,629.81,399.49Z"/><path class="cls-8" d="M606.18,382.57l-213,101.08a7.88,7.88,0,0,0-3.71,10.53L397,510,624,405l-9.23-20.41C613.2,381.39,609.37,381,606.18,382.57Z"/><path class="cls-9" d="M388.16,434.93h236.2a6.41,6.41,0,0,1,6.41,6.41v19a0,0,0,0,1,0,0H380.26a0,0,0,0,1,0,0V442.83a7.9,7.9,0,0,1,7.9-7.9Z" transform="translate(-143.81 262.42) rotate(-25.6)"/><path class="cls-10" d="M619.79,459.34l36,167.71s4.92,13.68-9.4,18.77c-11.81,4.19-184.2,41.12-244.38,54a22,22,0,0,1-25.87-15.94L328.65,503Z"/><polygon class="cls-11" points="389.95 438.83 403.86 501.1 341.14 501.1 341.44 477.42 389.95 438.83"/><path class="cls-12" d="M593.83,339.1S379.36,444.42,347.39,478.79c-29.12,31.3,254.49-27.31,254.49-27.31s37.85,4.95,3.89,20-304.41,84.77-276,16c23.9-57.9,63.46-61.54,260.14-167.45C589.9,320.05,658.34,305.36,593.83,339.1Z"/><path class="cls-13" d="M349,486.31h0c-4.17-1.44-5-3.87-1.63-7.52,7.15-7.69,23.43-18.92,44.4-31.74l4-25.7c-34.05,17.48-55,39.44-66,66.15-2.54,6.14-2.68,11.17-.83,15.24Z"/><rect class="cls-14" width="807.72" height="741.33"/></g></g></svg>