<svg xmlns="http://www.w3.org/2000/svg" viewBox="0 0 616.31 591.95"><defs><style>.cls-1{fill:#632836;}.cls-2{fill:#4abe9e;}.cls-3{fill:#dceab9;}.cls-4{fill:#48bd9d;}.cls-5{fill:#1f3742;}.cls-10,.cls-5{opacity:0.4;isolation:isolate;}.cls-6{fill:#491c2a;}.cls-7{fill:#72a7b4;}.cls-8{fill:#9ddbec;}.cls-9{fill:#ae4737;}.cls-10{fill:#491d2a;}.cls-11{fill:#843235;}.cls-12{fill:#6c2b2f;}</style></defs><title>Asset 1</title><g id="Layer_2" data-name="Layer 2"><g id="Layer_1-2" data-name="Layer 1"><path class="cls-1" d="M574.73,210.15l40.1,186.9s8.3,22.4-14.4,25.6-264.3,70.6-264.3,70.6l-41.4-124.1,48.5-38.6Z"/><path class="cls-2" d="M1.83,245.75l131.5-196.1a44.17,44.17,0,0,1,27.3-18.5L304.73.25a10.61,10.61,0,0,1,11.1,16.2l-127,194.9a43.61,43.61,0,0,1-27.5,18.9l-148.5,31.9A10.69,10.69,0,0,1,1.83,245.75Z"/><path class="cls-3" d="M19.13,232.35l118-175.7a39.7,39.7,0,0,1,24.5-16.6l129.3-27.8a9.54,9.54,0,0,1,10,14.5l-115.3,176.6a33.67,33.67,0,0,1-21.1,14.5L29,247A9.5,9.5,0,0,1,19.13,232.35Z"/><ellipse class="cls-4" cx="160.71" cy="129.65" rx="45" ry="31.4" transform="translate(-23.63 36.62) rotate(-12.12)"/><ellipse class="cls-4" cx="158.91" cy="130.65" rx="45" ry="31.4" transform="translate(-23.88 36.27) rotate(-12.12)"/><path class="cls-5" d="M112.83,218.15,340,114.45a11.06,11.06,0,0,1,8-.4l154.2,52.5c9.1,3.1,9.9,15.4,1.4,19.4l-222.8,105.3a10.37,10.37,0,0,1-8.1.4l-158.6-54C104.93,234.55,104.13,222.15,112.83,218.15Z"/><path class="cls-2" d="M128,216.35l213.8-100.3a43.88,43.88,0,0,1,33-1.8L514.23,162a10.62,10.62,0,0,1,1.2,19.6l-209.3,101.6a43.29,43.29,0,0,1-33.3,2L129.13,236A10.55,10.55,0,0,1,128,216.35Z"/><path class="cls-3" d="M153.73,215.75,345.43,126a39.66,39.66,0,0,1,29.5-1.6L500,167.15a9.56,9.56,0,0,1,1.1,17.6l-189.7,91.9a33.71,33.71,0,0,1-25.5,1.6l-131.1-44.9A9.5,9.5,0,0,1,153.73,215.75Z"/><ellipse class="cls-4" cx="328.04" cy="200.76" rx="31.4" ry="45" transform="matrix(0.32, -0.95, 0.95, 0.32, 31.86, 446.09)"/><ellipse class="cls-4" cx="325.94" cy="200.73" rx="31.4" ry="45" transform="matrix(0.32, -0.95, 0.95, 0.32, 30.46, 444.09)"/><path class="cls-6" d="M576.73,260.75l-239,116.4a2.1,2.1,0,0,0,0,3.8h0a1.91,1.91,0,0,0,1.8,0l240.1-114.9a2.15,2.15,0,0,0,.8-3.2l-1.2-1.5A1.9,1.9,0,0,0,576.73,260.75Z"/><path class="cls-7" d="M553,243.85,340,345a7.88,7.88,0,0,0-3.7,10.5l7.6,15.8,226.9-105-9.2-20.4C560,242.65,556.23,242.25,553,243.85Z"/><path class="cls-8" d="M554,246.05,341,348.15a7.88,7.88,0,0,0-3.7,10.5l7.6,15.8,225.9-108.3-8.2-17.2A6.52,6.52,0,0,0,554,246.05Z"/><path class="cls-6" d="M583.23,291.15l-238.9,116.4a2.1,2.1,0,0,0,0,3.8h0a1.91,1.91,0,0,0,1.8,0l240.1-114.9a2.15,2.15,0,0,0,.8-3.2l-1.2-1.5A2,2,0,0,0,583.23,291.15Z"/><path class="cls-7" d="M559.63,274.25l-213,101a7.88,7.88,0,0,0-3.7,10.5l7.6,15.8,226.9-105-9.2-20.4C566.63,273.05,562.83,272.65,559.63,274.25Z"/><path class="cls-8" d="M560.63,276.45l-213,102.1a7.88,7.88,0,0,0-3.7,10.5l7.6,15.8,225.9-108.3-8.2-17.2A6.55,6.55,0,0,0,560.63,276.45Z"/><path class="cls-9" d="M573.23,351l36,167.7s4.9,13.7-9.4,18.8c-11.8,4.2-184.2,41.1-244.4,54a22,22,0,0,1-25.9-15.9L282,394.65Z"/><polygon class="cls-10" points="343.43 330.45 357.33 392.75 294.53 392.75 294.83 369.05 343.43 330.45"/><path class="cls-11" d="M547.23,230.75s-214.5,105.3-246.4,139.7c-29.1,31.3,254.5-27.3,254.5-27.3s37.9,5,3.9,20-304.4,84.8-276,16c23.9-57.9,63.5-61.5,260.1-167.5C543.33,211.65,611.73,197,547.23,230.75Z"/><path class="cls-12" d="M302.43,378h0c-4.2-1.4-5-3.9-1.6-7.5,7.2-7.7,23.4-18.9,44.4-31.7l4-25.7c-34.1,17.5-55,39.4-66,66.2-2.5,6.1-2.7,11.2-.8,15.2Z"/></g></g></svg>